<?xml version="1.0" encoding="UTF-8" standalone="no"?>
<svg
   width="409mm"
   height="135mm"
   viewBox="0 0 409 135"
   version="1.1"
   preserveAspectRatio="xMidYMid meet"
   id="svg196"
   sodipodi:docname="Laser Controller.svg"
   inkscape:version="1.2.2 (b0a8486541, 2022-12-01)"
   xmlns:inkscape="http://www.inkscape.org/namespaces/inkscape"
   xmlns:sodipodi="http://sodipodi.sourceforge.net/DTD/sodipodi-0.dtd"
   xmlns="http://www.w3.org/2000/svg"
   xmlns:svg="http://www.w3.org/2000/svg">
  <defs
     id="defs200" />
  <sodipodi:namedview
     id="namedview198"
     pagecolor="#505050"
     bordercolor="#eeeeee"
     borderopacity="1"
     inkscape:showpageshadow="0"
     inkscape:pageopacity="0"
     inkscape:pagecheckerboard="0"
     inkscape:deskcolor="#505050"
     inkscape:document-units="mm"
     showgrid="false"
     inkscape:zoom="0.80050164"
     inkscape:cx="348.53145"
     inkscape:cy="268.58159"
     inkscape:window-width="2490"
     inkscape:window-height="1371"
     inkscape:window-x="0"
     inkscape:window-y="0"
     inkscape:window-maximized="1"
     inkscape:current-layer="svg196" />
  <path
     d="m 0,69.000002 v 9.375 h 3 v 15.75 H 0 V 109.875 h 3 v 15.75 H 0 V 135 h 19.625 v -3 h 15.75 v 3 h 15.75 v -3 h 15.75 v 3 h 15.75 v -3 h 15.75 v 3 h 15.75 v -3 h 15.75 v 3 h 15.75 v -3 h 15.75 v 3 H 181 v -9.375 h -3 v -15.75 h 3 V 94.125002 h -3 v -15.75 h 3 v -9.375 h -19.625 v 3 h -15.75 v -3 h -15.75 v 3 h -15.75 v -3 h -15.75 v 3 h -15.75 v -3 h -15.75 v 3 h -15.75 v -3 h -15.75 v 3 h -15.75 v -3 z"
     id="front_outsideCutPath"
     stroke="#FF0000"
     stroke-width="0.1"
     style="font-size:12px;fill:none;fill-rule:evenodd;stroke:#ff0000;stroke-width:0.1;stroke-linecap:round"
     vector-effect="non-scaling-stroke" />
  <path
     d="m 187,69 v 9.375 h -3 v 15.75 h 3 v 15.75 h -3 v 15.75 h 3 V 135 h 9.625 v -3 h 15.75 v 3 H 222 v -9.375 h 3 v -15.75 h -3 v -15.75 h 3 v -15.75 h -3 V 69 h -9.625 v 3 h -15.75 v -3 z"
     id="left_outsideCutPath"
     stroke="#FF0000"
     stroke-width="0.1"
     style="font-size:12px;fill:none;fill-rule:evenodd;stroke:#ff0000;stroke-width:0.1;stroke-linecap:round"
     vector-effect="non-scaling-stroke" />
  <path
     d="m 231,97 v 9.625 h -3 v 15.75 h 3 V 132 h 16.625 v 3 h 15.75 v -3 h 15.75 v 3 h 15.75 v -3 h 15.75 v 3 h 15.75 v -3 h 15.75 v 3 h 15.75 v -3 h 15.75 v 3 h 15.75 v -3 H 406 v -9.625 h 3 v -15.75 h -3 V 97 h -16.625 v -3 h -15.75 v 3 h -15.75 v -3 h -15.75 v 3 h -15.75 v -3 h -15.75 v 3 h -15.75 v -3 h -15.75 v 3 h -15.75 v -3 h -15.75 v 3 z"
     id="top_outsideCutPath"
     stroke="#FF0000"
     stroke-width="0.1"
     style="font-size:12px;fill:none;fill-rule:evenodd;stroke:#ff0000;stroke-width:0.1;stroke-linecap:round"
     vector-effect="non-scaling-stroke" />
  <path
     d="m 321.447,115.653 h -0.048 a 6.29,6.29 0 0 1 0.041,0.465 5.271,5.271 0 0 1 0.007,0.264 v 1.806 h -0.665 v -6.359 h 0.541 l 0.092,0.601 h 0.032 a 1.789,1.789 0 0 1 0.259,-0.294 1.383,1.383 0 0 1 0.337,-0.227 1.664,1.664 0 0 1 0.478,-0.139 2.154,2.154 0 0 1 0.303,-0.021 2.037,2.037 0 0 1 0.576,0.077 1.506,1.506 0 0 1 0.771,0.52 q 0.388,0.488 0.459,1.296 a 4.328,4.328 0 0 1 0.016,0.378 q 0,0.762 -0.24,1.285 a 1.868,1.868 0 0 1 -0.243,0.394 1.573,1.573 0 0 1 -1.118,0.588 2.254,2.254 0 0 1 -0.221,0.011 2.016,2.016 0 0 1 -0.506,-0.062 1.754,1.754 0 0 1 -0.277,-0.096 q -0.354,-0.159 -0.594,-0.487 z m -6.494,0.016 v 0.509 q -0.098,0.047 -0.279,0.079 a 2.486,2.486 0 0 1 -0.04,0.007 2.881,2.881 0 0 1 -0.188,0.024 q -0.088,0.009 -0.168,0.01 a 1.705,1.705 0 0 1 -0.022,0 q -1.273,0 -1.273,-1.342 v -2.61 h -0.629 v -0.32 l 0.629,-0.277 0.28,-0.937 h 0.384 v 1.017 h 1.273 v 0.517 h -1.273 v 2.582 a 1.338,1.338 0 0 0 0.02,0.235 q 0.041,0.23 0.168,0.374 a 0.617,0.617 0 0 0 0.38,0.202 0.888,0.888 0 0 0 0.137,0.01 2.183,2.183 0 0 0 0.32,-0.023 2.013,2.013 0 0 0 0.02,-0.003 q 0.157,-0.025 0.252,-0.051 a 0.995,0.995 0 0 0 0.009,-0.003 z m 4.603,-0.982 a 3.433,3.433 0 0 0 0.061,-0.667 3.901,3.901 0 0 0 -0.001,-0.106 q -0.01,-0.365 -0.089,-0.676 a 2.07,2.07 0 0 0 -0.452,-0.876 1.74,1.74 0 0 0 -0.808,-0.521 2.233,2.233 0 0 0 -0.656,-0.092 2.581,2.581 0 0 0 -0.464,0.04 1.758,1.758 0 0 0 -1.025,0.559 1.836,1.836 0 0 0 -0.226,0.313 q -0.311,0.542 -0.311,1.359 0,0.692 0.248,1.209 a 2.184,2.184 0 0 0 0.049,0.094 1.799,1.799 0 0 0 0.656,0.698 1.851,1.851 0 0 0 0.425,0.189 2.134,2.134 0 0 0 0.62,0.088 2.581,2.581 0 0 0 0.451,-0.038 1.772,1.772 0 0 0 1.043,-0.565 1.854,1.854 0 0 0 0.22,-0.303 q 0.18,-0.308 0.259,-0.705 z m -3.282,-0.667 q 0,0.84 0.336,1.281 a 1.089,1.089 0 0 0 0.71,0.418 1.651,1.651 0 0 0 0.279,0.022 1.544,1.544 0 0 0 0.407,-0.05 1.074,1.074 0 0 0 0.584,-0.388 1.427,1.427 0 0 0 0.222,-0.433 q 0.116,-0.355 0.116,-0.85 a 3.316,3.316 0 0 0 -0.031,-0.473 q -0.072,-0.497 -0.307,-0.799 -0.338,-0.434 -0.999,-0.434 a 1.582,1.582 0 0 0 -0.394,0.046 1.059,1.059 0 0 0 -0.591,0.382 1.374,1.374 0 0 0 -0.214,0.413 q -0.118,0.357 -0.118,0.865 z m 5.173,-0.149 v 0.149 a 4.395,4.395 0 0 0 0.022,0.454 q 0.047,0.458 0.2,0.737 a 1.002,1.002 0 0 0 0.086,0.132 q 0.277,0.357 0.852,0.394 a 2.137,2.137 0 0 0 0.137,0.004 1.12,1.12 0 0 0 0.436,-0.082 q 0.251,-0.104 0.43,-0.344 a 1.324,1.324 0 0 0 0.025,-0.034 q 0.254,-0.364 0.308,-0.944 a 3.541,3.541 0 0 0 0.014,-0.325 q 0,-0.821 -0.322,-1.26 a 1.034,1.034 0 0 0 -0.756,-0.43 1.43,1.43 0 0 0 -0.151,-0.008 q -0.673,0 -0.973,0.372 -0.3,0.373 -0.308,1.185 z"
     id="top_labelLayer"
     stroke="#777777"
     fill="#777777"
     style="font-size:12px;fill:#777777;fill-rule:evenodd;stroke:#777777;stroke-width:0.25mm;stroke-linecap:round"
     vector-effect="non-scaling-stroke" />
  <path
     d="m 0,0 v 9.375 h 3 v 15.75 H 0 v 15.75 h 3 v 15.75 H 0 V 66 h 19.625 v -3 h 15.75 v 3 h 15.75 v -3 h 15.75 v 3 h 15.75 v -3 h 15.75 v 3 h 15.75 v -3 h 15.75 v 3 h 15.75 v -3 h 15.75 v 3 H 181 v -9.375 h -3 v -15.75 h 3 v -15.75 h -3 V 9.375 h 3 V 0 h -19.625 v 3 h -15.75 V 0 h -15.75 v 3 h -15.75 V 0 H 98.375 V 3 H 82.625 V 0 H 66.875 V 3 H 51.125 V 0 H 35.375 V 3 H 19.625 V 0 Z"
     id="back_outsideCutPath"
     stroke="#FF0000"
     stroke-width="0.1"
     style="font-size:12px;fill:none;fill-rule:evenodd;stroke:#ff0000;stroke-width:0.1;stroke-linecap:round"
     vector-effect="non-scaling-stroke" />
  <path
     d="m 99.536,34.334 h 0.052 a 6.334,6.334 0 0 1 0.157,-0.212 q 0.18,-0.234 0.437,-0.533 a 22.991,22.991 0 0 1 0.25,-0.286 l 2.282,-2.417 h 1.27 l -2.862,3.01 3.061,4.054 h -1.295 l -2.494,-3.339 -0.806,0.696 V 37.95 H 98.531 V 27.921 h 1.057 v 5.317 q 0,0.348 -0.05,1.069 a 44.929,44.929 0 0 1 -0.002,0.027 z M 77.887,37.041 H 77.809 L 77.584,37.95 H 76.817 V 27.921 h 1.07 v 2.436 a 22.307,22.307 0 0 1 -0.013,0.754 q -0.012,0.38 -0.039,0.716 h 0.052 q 0.747,-1.057 2.217,-1.057 a 3.27,3.27 0 0 1 0.92,0.123 2.448,2.448 0 0 1 1.242,0.828 3.153,3.153 0 0 1 0.553,1.064 q 0.136,0.439 0.187,0.964 a 6.868,6.868 0 0 1 0.03,0.662 6.273,6.273 0 0 1 -0.083,1.056 q -0.171,1 -0.693,1.648 a 2.533,2.533 0 0 1 -1.801,0.947 3.629,3.629 0 0 1 -0.355,0.017 3.245,3.245 0 0 1 -0.816,-0.1 2.824,2.824 0 0 1 -0.444,-0.155 2.37,2.37 0 0 1 -0.957,-0.783 z M 90.042,37.95 H 89.25 l -0.213,-1.006 h -0.052 q -0.373,0.469 -0.744,0.724 a 1.971,1.971 0 0 1 -0.309,0.176 2.467,2.467 0 0 1 -0.51,0.16 q -0.247,0.052 -0.534,0.068 A 4.815,4.815 0 0 1 86.62,38.079 3.283,3.283 0 0 1 85.952,38.015 Q 85.543,37.93 85.23,37.732 A 1.842,1.842 0 0 1 84.973,37.537 1.759,1.759 0 0 1 84.443,36.61 2.692,2.692 0 0 1 84.377,35.997 1.851,1.851 0 0 1 85.43,34.25 q 0.845,-0.45 2.369,-0.496 l 1.199,-0.039 v -0.438 q 0,-0.508 -0.133,-0.854 a 1.194,1.194 0 0 0 -0.224,-0.374 1.086,1.086 0 0 0 -0.445,-0.29 q -0.178,-0.065 -0.399,-0.09 a 2.644,2.644 0 0 0 -0.301,-0.016 3.483,3.483 0 0 0 -0.801,0.1 q -0.561,0.132 -1.197,0.441 L 85.17,31.376 a 4.933,4.933 0 0 1 0.952,-0.392 5.615,5.615 0 0 1 0.192,-0.053 q 0.622,-0.161 1.247,-0.161 a 4.519,4.519 0 0 1 0.688,0.049 q 0.354,0.054 0.636,0.17 a 1.821,1.821 0 0 1 0.548,0.342 q 0.478,0.439 0.581,1.295 a 4.21,4.21 0 0 1 0.028,0.503 z m 6.916,-6.826 -0.329,0.909 a 4.76,4.76 0 0 0 -0.516,-0.172 5.685,5.685 0 0 0 -0.257,-0.063 q -0.419,-0.094 -0.741,-0.094 a 2.373,2.373 0 0 0 -0.964,0.182 q -1.189,0.524 -1.189,2.564 a 5.182,5.182 0 0 0 0.051,0.755 q 0.113,0.765 0.474,1.243 0.526,0.696 1.557,0.696 a 4.479,4.479 0 0 0 1.235,-0.179 5.53,5.53 0 0 0 0.576,-0.201 v 0.947 q -0.609,0.316 -1.489,0.361 a 5.867,5.867 0 0 1 -0.296,0.007 q -1.534,0 -2.375,-0.944 a 3.095,3.095 0 0 1 -0.644,-1.182 q -0.142,-0.47 -0.182,-1.034 a 6.469,6.469 0 0 1 -0.015,-0.456 5.903,5.903 0 0 1 0.091,-1.073 q 0.188,-1.016 0.763,-1.666 a 2.77,2.77 0 0 1 1.516,-0.873 4.2,4.2 0 0 1 0.917,-0.094 4.828,4.828 0 0 1 1.018,0.11 5.34,5.34 0 0 1 0.297,0.072 q 0.298,0.082 0.496,0.182 a 1.595,1.595 0 0 1 0.006,0.003 z m -18.175,0.807 a 1.423,1.423 0 0 0 -0.413,0.363 1.832,1.832 0 0 0 -0.265,0.505 q -0.218,0.612 -0.218,1.612 a 7.074,7.074 0 0 0 0.035,0.732 q 0.096,0.928 0.461,1.399 0.445,0.575 1.371,0.634 a 3.44,3.44 0 0 0 0.221,0.007 2.133,2.133 0 0 0 0.606,-0.081 1.539,1.539 0 0 0 0.863,-0.638 2.456,2.456 0 0 0 0.304,-0.657 q 0.18,-0.588 0.18,-1.408 0,-1.38 -0.484,-2.056 a 1.56,1.56 0 0 0 -0.993,-0.629 2.475,2.475 0 0 0 -0.502,-0.048 q -0.712,0 -1.166,0.265 z m 10.189,3.183 v -0.638 l -1.069,0.045 q -1.277,0.045 -1.841,0.396 a 1.142,1.142 0 0 0 -0.544,0.829 1.69,1.69 0 0 0 -0.02,0.264 q 0,0.58 0.352,0.883 a 1.165,1.165 0 0 0 0.436,0.232 q 0.173,0.051 0.38,0.065 a 2.406,2.406 0 0 0 0.167,0.006 2.946,2.946 0 0 0 0.636,-0.065 q 0.443,-0.098 0.77,-0.344 a 1.786,1.786 0 0 0 0.163,-0.139 q 0.567,-0.545 0.57,-1.523 a 3.4,3.4 0 0 0 0,-0.011 z"
     id="back_labelLayer"
     stroke="#777777"
     fill="#777777"
     style="font-size:12px;fill:#777777;fill-rule:evenodd;stroke:#777777;stroke-width:0.25mm;stroke-linecap:round"
     vector-effect="non-scaling-stroke" />
  <path
     d="m 187,0 v 9.375 h -3 v 15.75 h 3 v 15.75 h -3 v 15.75 h 3 V 66 h 9.625 v -3 h 15.75 v 3 H 222 v -9.375 h 3 v -15.75 h -3 v -15.75 h 3 V 9.375 h -3 V 0 h -9.625 v 3 h -15.75 V 0 Z"
     id="right_outsideCutPath"
     stroke="#FF0000"
     stroke-width="0.1"
     style="font-size:12px;fill:none;fill-rule:evenodd;stroke:#ff0000;stroke-width:0.1;stroke-linecap:round"
     vector-effect="non-scaling-stroke" />
  <circle
     style="fill:none;stroke:#ff0000;stroke-width:0.25;stroke-dasharray:none"
     id="path424-3"
     cx="204.5"
     cy="33"
     r="7.5" />
  <path
     d="m 231,53 v 9.625 h -3 v 15.75 h 3 V 88 h 16.625 v 3 h 15.75 v -3 h 15.75 v 3 h 15.75 v -3 h 15.75 v 3 h 15.75 v -3 h 15.75 v 3 h 15.75 v -3 h 15.75 v 3 h 15.75 V 88 H 406 v -9.625 h 3 v -15.75 h -3 V 53 h -16.625 v -3 h -15.75 v 3 h -15.75 v -3 h -15.75 v 3 h -15.75 v -3 h -15.75 v 3 h -15.75 v -3 h -15.75 v 3 h -15.75 v -3 h -15.75 v 3 z"
     id="bottom_outsideCutPath"
     stroke="#FF0000"
     stroke-width="0.1"
     style="font-size:12px;fill:none;fill-rule:evenodd;stroke:#ff0000;stroke-width:0.1;stroke-linecap:round"
     vector-effect="non-scaling-stroke" />
  <path
     d="m 331.989,73.575 h -0.665 V 70.72 a 1.961,1.961 0 0 0 -0.019,-0.288 q -0.022,-0.147 -0.069,-0.266 A 0.803,0.803 0 0 0 331.1,69.933 q -0.224,-0.262 -0.696,-0.262 -0.621,0 -0.917,0.356 a 1.098,1.098 0 0 0 -0.187,0.337 q -0.109,0.307 -0.11,0.754 a 3.634,3.634 0 0 0 0,0.007 v 2.45 h -0.664 V 70.72 a 1.961,1.961 0 0 0 -0.02,-0.288 q -0.022,-0.147 -0.068,-0.266 a 0.803,0.803 0 0 0 -0.136,-0.233 q -0.225,-0.262 -0.701,-0.262 a 1.651,1.651 0 0 0 -0.342,0.033 q -0.369,0.078 -0.573,0.341 -0.263,0.34 -0.288,1.072 a 4.628,4.628 0 0 0 -0.002,0.156 v 2.302 h -0.665 v -4.388 h 0.541 l 0.108,0.6 h 0.032 a 1.306,1.306 0 0 1 0.53,-0.5 q 0.343,-0.18 0.767,-0.18 a 2.176,2.176 0 0 1 0.49,0.051 q 0.301,0.069 0.511,0.234 a 1.135,1.135 0 0 1 0.344,0.459 h 0.032 a 1.388,1.388 0 0 1 0.523,-0.519 1.668,1.668 0 0 1 0.046,-0.025 1.682,1.682 0 0 1 0.617,-0.188 2.098,2.098 0 0 1 0.232,-0.012 q 0.502,0 0.834,0.173 a 1.095,1.095 0 0 1 0.281,0.209 q 0.37,0.382 0.37,1.223 z M 305.675,73.01 h -0.048 l -0.14,0.565 h -0.476 v -6.23 h 0.664 v 1.513 q 0,0.492 -0.03,0.887 a 8.305,8.305 0 0 1 -0.002,0.026 h 0.032 a 1.511,1.511 0 0 1 1.103,-0.64 2.27,2.27 0 0 1 0.275,-0.016 2.031,2.031 0 0 1 0.572,0.076 1.521,1.521 0 0 1 0.771,0.514 q 0.383,0.473 0.46,1.26 a 4.266,4.266 0 0 1 0.019,0.412 q 0,0.763 -0.241,1.285 a 1.868,1.868 0 0 1 -0.242,0.394 1.573,1.573 0 0 1 -1.118,0.588 2.254,2.254 0 0 1 -0.221,0.011 2.016,2.016 0 0 1 -0.507,-0.062 1.754,1.754 0 0 1 -0.276,-0.096 q -0.354,-0.158 -0.595,-0.487 z m 11.332,0.016 v 0.509 q -0.098,0.047 -0.279,0.079 a 2.486,2.486 0 0 1 -0.04,0.007 2.881,2.881 0 0 1 -0.188,0.024 q -0.088,0.009 -0.168,0.01 a 1.705,1.705 0 0 1 -0.022,0 q -1.273,0 -1.273,-1.341 v -2.611 h -0.629 v -0.32 l 0.629,-0.276 0.28,-0.937 h 0.384 v 1.017 h 1.273 v 0.516 h -1.273 v 2.583 a 1.338,1.338 0 0 0 0.02,0.235 q 0.041,0.229 0.168,0.373 a 0.617,0.617 0 0 0 0.38,0.202 0.888,0.888 0 0 0 0.137,0.01 2.183,2.183 0 0 0 0.32,-0.022 2.013,2.013 0 0 0 0.02,-0.004 q 0.157,-0.024 0.252,-0.051 a 0.995,0.995 0 0 0 0.009,-0.003 z m 2.894,0 v 0.509 q -0.097,0.047 -0.278,0.079 a 2.486,2.486 0 0 1 -0.04,0.007 2.881,2.881 0 0 1 -0.188,0.024 q -0.088,0.009 -0.168,0.01 a 1.705,1.705 0 0 1 -0.022,0 q -1.274,0 -1.274,-1.341 v -2.611 h -0.628 v -0.32 l 0.628,-0.276 0.281,-0.937 h 0.384 v 1.017 h 1.273 v 0.516 h -1.273 v 2.583 a 1.338,1.338 0 0 0 0.019,0.235 q 0.041,0.229 0.169,0.373 a 0.617,0.617 0 0 0 0.38,0.202 0.888,0.888 0 0 0 0.137,0.01 2.183,2.183 0 0 0 0.32,-0.022 2.013,2.013 0 0 0 0.02,-0.004 q 0.157,-0.024 0.251,-0.051 a 0.995,0.995 0 0 0 0.009,-0.003 z m -6.139,-0.981 a 3.433,3.433 0 0 0 0.061,-0.668 3.901,3.901 0 0 0 -10e-4,-0.106 q -0.01,-0.365 -0.089,-0.675 a 2.07,2.07 0 0 0 -0.452,-0.877 1.74,1.74 0 0 0 -0.808,-0.521 2.233,2.233 0 0 0 -0.656,-0.091 2.581,2.581 0 0 0 -0.463,0.039 1.758,1.758 0 0 0 -1.026,0.559 1.836,1.836 0 0 0 -0.226,0.313 q -0.311,0.542 -0.311,1.359 0,0.692 0.249,1.209 a 2.184,2.184 0 0 0 0.048,0.095 1.799,1.799 0 0 0 0.656,0.698 1.851,1.851 0 0 0 0.425,0.189 2.134,2.134 0 0 0 0.62,0.087 2.581,2.581 0 0 0 0.451,-0.038 1.772,1.772 0 0 0 1.043,-0.565 1.854,1.854 0 0 0 0.221,-0.303 q 0.18,-0.308 0.258,-0.704 z m 10.743,0 a 3.433,3.433 0 0 0 0.061,-0.668 3.901,3.901 0 0 0 -0.002,-0.106 q -0.009,-0.365 -0.089,-0.675 a 2.07,2.07 0 0 0 -0.452,-0.877 1.74,1.74 0 0 0 -0.807,-0.521 2.233,2.233 0 0 0 -0.656,-0.091 2.581,2.581 0 0 0 -0.464,0.039 1.758,1.758 0 0 0 -1.026,0.559 1.836,1.836 0 0 0 -0.225,0.313 q -0.311,0.542 -0.311,1.359 0,0.692 0.248,1.209 a 2.184,2.184 0 0 0 0.049,0.095 1.799,1.799 0 0 0 0.656,0.698 1.851,1.851 0 0 0 0.425,0.189 2.134,2.134 0 0 0 0.62,0.087 2.581,2.581 0 0 0 0.451,-0.038 1.772,1.772 0 0 0 1.042,-0.565 1.854,1.854 0 0 0 0.221,-0.303 q 0.18,-0.308 0.259,-0.704 z M 310.48,71.377 q 0,0.841 0.336,1.281 a 1.089,1.089 0 0 0 0.71,0.418 1.651,1.651 0 0 0 0.279,0.022 1.544,1.544 0 0 0 0.408,-0.05 1.074,1.074 0 0 0 0.583,-0.388 1.427,1.427 0 0 0 0.223,-0.433 q 0.116,-0.355 0.116,-0.85 a 3.316,3.316 0 0 0 -0.032,-0.473 q -0.071,-0.496 -0.307,-0.798 -0.338,-0.435 -0.999,-0.435 a 1.582,1.582 0 0 0 -0.393,0.046 1.059,1.059 0 0 0 -0.592,0.383 1.374,1.374 0 0 0 -0.213,0.412 q -0.119,0.357 -0.119,0.865 z m 10.743,0 q 0,0.841 0.336,1.281 a 1.089,1.089 0 0 0 0.709,0.418 1.651,1.651 0 0 0 0.28,0.022 1.544,1.544 0 0 0 0.407,-0.05 1.074,1.074 0 0 0 0.584,-0.388 1.427,1.427 0 0 0 0.222,-0.433 q 0.116,-0.355 0.116,-0.85 a 3.316,3.316 0 0 0 -0.031,-0.473 q -0.072,-0.496 -0.307,-0.798 -0.338,-0.435 -0.999,-0.435 a 1.582,1.582 0 0 0 -0.394,0.046 1.059,1.059 0 0 0 -0.591,0.383 1.374,1.374 0 0 0 -0.214,0.412 q -0.118,0.357 -0.118,0.865 z m -14.266,-1.706 a 1.868,1.868 0 0 0 -0.362,0.033 q -0.406,0.08 -0.619,0.357 a 1.138,1.138 0 0 0 -0.165,0.314 q -0.111,0.312 -0.131,0.785 a 5.121,5.121 0 0 0 -0.005,0.217 4.395,4.395 0 0 0 0.022,0.454 q 0.048,0.458 0.201,0.737 a 1.002,1.002 0 0 0 0.086,0.132 q 0.276,0.357 0.852,0.394 a 2.137,2.137 0 0 0 0.137,0.004 1.325,1.325 0 0 0 0.376,-0.05 0.956,0.956 0 0 0 0.537,-0.396 q 0.214,-0.319 0.275,-0.837 a 3.808,3.808 0 0 0 0.025,-0.446 q 0,-0.857 -0.3,-1.278 a 0.969,0.969 0 0 0 -0.617,-0.39 1.537,1.537 0 0 0 -0.312,-0.03 z"
     id="bottom_labelLayer"
     stroke="#777777"
     fill="#777777"
     style="font-size:12px;fill:#777777;fill-rule:evenodd;stroke:#777777;stroke-width:0.25mm;stroke-linecap:round"
     vector-effect="non-scaling-stroke" />
  <circle
     style="fill:none;stroke:#ff0000;stroke-width:0.25;stroke-dasharray:none"
     id="path424"
     cx="204.5"
     cy="102"
     r="7.5" />
  <text
     xml:space="preserve"
     style="font-weight:bold;font-size:12.7px;font-family:'Space Mono';-inkscape-font-specification:'Space Mono, Bold';text-align:justify;fill:none;stroke:#ff0000;stroke-width:1"
     x="36.823475"
     y="106.7625"
     id="text759"><tspan
       sodipodi:role="line"
       id="tspan757"
       style="font-style:normal;font-variant:normal;font-weight:normal;font-stretch:normal;font-size:12.7px;font-family:sans-serif;-inkscape-font-specification:'sans-serif, Normal';font-variant-ligatures:normal;font-variant-caps:normal;font-variant-numeric:normal;font-variant-east-asian:normal;fill:#1a1a1a;stroke:none;stroke-width:1"
       x="36.823475"
       y="106.7625">Ext Fan Controller</tspan></text>
</svg>
